####
#
# OBJ File Generated by Meshlab
#
####
# Object cubo_n_average.obj
#
# Vertices: 8
# Faces: 6
#
####
mtllib ./cubo_n_average.obj.mtl

vn 0.333333 0.666667 -0.666667
v 1.000000 1.000000 -1.000000
vn 0.816497 -0.408248 -0.408248
v 1.000000 -1.000000 -1.000000
vn 0.816497 0.408248 0.408248
v 1.000000 1.000000 1.000000
vn 0.333333 -0.666667 0.666667
v 1.000000 -1.000000 1.000000
vn -0.816497 0.408248 -0.408248
v -1.000000 1.000000 -1.000000
vn -0.333333 -0.666667 -0.666667
v -1.000000 -1.000000 -1.000000
vn -0.333333 0.666667 0.666667
v -1.000000 1.000000 1.000000
vn -0.816497 -0.408248 0.408248
v -1.000000 -1.000000 1.000000
# 8 vertices, 0 vertices normals


usemtl material_0
vt 0.000000 0.000000
vt 0.000000 0.000000
f 5/1/5 7/1/7 3/1/3 1/2/1
f 3/1/3 7/1/7 8/1/8 4/2/4
f 7/1/7 5/1/5 6/1/6 8/2/8
f 2/1/2 4/1/4 8/1/8 6/2/6
f 1/1/1 3/1/3 4/1/4 2/2/2
vt 0.000000 0.000000
f 5/1/5 1/1/1 2/1/2 6/3/6
# 6 faces, 3 coords texture

# End of File
